# xmcd
#
# Track frame offsets:
#	150
#	14407
#	31107
#	45077
#	60330
#	72657
#	89737
#	101662
#	114352
#	128115
#
# Disc length: 2099 seconds
#
# Revision: 0
# Processed by: cddbd v1.4PL0 Copyright (c) Steve Scherf et al.
# Submitted via: EasyCDDAExtractor 4.5.0.2
#
DISCID=7c08310a
DTITLE=Manolo Escobar - Grandes Exitos
DYEAR=2001
DGENRE=Folklore
TTITLE0=Mujeres y vino
TTITLE1=Vanessa
TTITLE2=La Minifalda
TTITLE3=Que bonita eres
TTITLE4=Viva Almeria
TTITLE5=Aquel hijo
TTITLE6=Viva España
TTITLE7=Que guapa estas
TTITLE8=Madrecita Maria del Carmen
TTITLE9=Rumba pa ti
EXTD=
EXTT0=
EXTT1=
EXTT2=
EXTT3=
EXTT4=
EXTT5=
EXTT6=
EXTT7=
EXTT8=
EXTT9=
PLAYORDER=
